<svg xmlns="http://www.w3.org/2000/svg" width="40" height="36.797" viewBox="0 0 40 36.797">
  <g id="_04-Lungs" data-name="04-Lungs" transform="translate(0.094 -3.65)">
    <path id="Path_12" data-name="Path 12" d="M43.62,14.46V4.8H41.047v9.66a1.911,1.911,0,0,1-1.324,1.815l-1.432.454V19.3L41.2,18.37a3.71,3.71,0,0,1,2.232,0l2.915.933v-2.59l-1.432-.454a1.911,1.911,0,0,1-1.3-1.8Z" transform="translate(-22.401 -0.671)" fill="#fbc4ab"/>
    <path id="Path_13" data-name="Path 13" d="M3.589,50.417c2.707.512,6.479-.916,9.348-2.323a7.462,7.462,0,0,0,4.164-6.7V24.405a2.915,2.915,0,0,0-4.372-2.552A21.9,21.9,0,0,0,5.071,29.51C.616,36.564-.629,49.584,3.589,50.417Z" transform="translate(-0.637 -10.395)" fill="#f7527b"/>
    <path id="Path_14" data-name="Path 14" d="M20.705,42.8V35.07a1.374,1.374,0,0,0-2.3-1.016,21.936,21.936,0,0,0-3.589,4.393,20.524,20.524,0,0,0-1.865,3.918A1.374,1.374,0,0,0,14.243,44.2h5.088a1.378,1.378,0,0,0,1.374-1.4Z" transform="translate(-7.564 -17.533)" fill="#f7899e"/>
    <path id="Path_15" data-name="Path 15" d="M17.12,58.47v4.5a7.453,7.453,0,0,1-4.164,6.7c-2.869,1.407-6.641,2.84-9.348,2.323C1.422,71.6.693,67.851,1.13,63.4c.283,2.257,1.083,3.835,2.465,4.1,2.707.512,6.479-.916,9.348-2.323a7.47,7.47,0,0,0,4.176-6.7Z" transform="translate(-0.644 -31.993)" fill="#f798ad"/>
    <path id="Path_16" data-name="Path 16" d="M69.842,50.417c-2.707.512-6.479-.916-9.348-2.323a7.462,7.462,0,0,1-4.164-6.7V24.405A2.915,2.915,0,0,1,60.7,21.853a21.9,21.9,0,0,1,7.657,7.657C72.815,36.564,74.06,49.584,69.842,50.417Z" transform="translate(-32.929 -10.395)" fill="#f7527b"/>
    <path id="Path_17" data-name="Path 17" d="M70.772,44.151a1.374,1.374,0,0,0,1.295-1.836A20.524,20.524,0,0,0,70.2,38.4,21.935,21.935,0,0,0,66.612,34a1.374,1.374,0,0,0-2.3,1.037v7.732a1.378,1.378,0,0,0,1.374,1.378Z" transform="translate(-37.586 -17.504)" fill="#f7899e"/>
    <path id="Path_18" data-name="Path 18" d="M56.3,58.47v4.5a7.453,7.453,0,0,0,4.164,6.7c2.869,1.407,6.662,2.84,9.348,2.323,2.19-.416,2.915-4.126,2.465-8.59-.283,2.257-1.083,3.835-2.465,4.1-2.707.512-6.479-.916-9.348-2.323a7.47,7.47,0,0,1-4.164-6.7Z" transform="translate(-32.912 -31.993)" fill="#f798ad"/>
    <rect id="Rectangle_10" data-name="Rectangle 10" width="2.573" height="2.573" transform="translate(18.645 4.129)" fill="#fbd3c9"/>
    <rect id="Rectangle_11" data-name="Rectangle 11" width="2.573" height="2.573" transform="translate(18.645 6.698)" fill="#fbbab0"/>
    <rect id="Rectangle_12" data-name="Rectangle 12" width="2.573" height="2.573" transform="translate(18.645 9.271)" fill="#fba697"/>
    <path id="Path_19" data-name="Path 19" d="M35.755,18.832a22.358,22.358,0,0,0-7.816-7.8,3.331,3.331,0,0,0-5,2.915v1.278l-.308-.1A1.487,1.487,0,0,1,21.6,13.714V4.066a.416.416,0,0,0-.416-.416H18.612a.416.416,0,0,0-.416.416v9.648a1.487,1.487,0,0,1-1.033,1.416l-.308.1V13.947a3.331,3.331,0,0,0-5-2.915,22.471,22.471,0,0,0-7.816,7.8,30.48,30.48,0,0,0-4,12.446C0,31.319-.45,35.516.566,38.09A3.606,3.606,0,0,0,2.173,40.1a4.58,4.58,0,0,0,1.949.341c3.41,0,8.328-2.336,9.19-2.965A7.832,7.832,0,0,0,16.859,30.9c0-7.82,0-1.666,0-12.242L18.916,18a3.2,3.2,0,0,1,1.974,0l2.057.654V30.9a7.832,7.832,0,0,0,4.41,7.079c2.5,1.22,5.875,2.569,8.661,2.461a3.294,3.294,0,0,0,1.92-.516C41.626,37.2,39.694,25.073,35.755,18.832ZM20.765,8.792H19.028V7.056h1.736Zm-1.741.833h1.741v1.741H19.028Zm0-5.142h1.741V6.223H19.028ZM12.949,36.736a24.33,24.33,0,0,1-4.26,1.945,11.733,11.733,0,0,1-5.829.833c-.042-.042-2.082-.246-2.128-5.463a2.916,2.916,0,0,0,2.082,1.811c2.856.545,6.8-.983,9.606-2.357a7.911,7.911,0,0,0,3.573-3.564v.983A7.1,7.1,0,0,1,12.949,36.736Zm3.073-10.072a7.079,7.079,0,0,1-3.939,6.079c-2.69,1.32-6.454,2.79-9.086,2.29-1.457-.275-1.957-2.4-2.124-3.685A29.936,29.936,0,0,1,4.75,19.273a21.384,21.384,0,0,1,7.52-7.5,2.5,2.5,0,0,1,3.748,2.19Zm5.117-9.44a4.01,4.01,0,0,0-2.5,0l-1.8.575V16.1l.6-.179a2.311,2.311,0,0,0,1.616-2.207V12.2h1.716v1.516a2.311,2.311,0,0,0,1.616,2.207l.558.179v1.7Zm2.636-3.277a2.5,2.5,0,0,1,3.748-2.19,21.474,21.474,0,0,1,7.524,7.516,30,30,0,0,1,3.877,12.075c-.167,1.282-.666,3.41-2.124,3.685-2.627.5-6.392-.97-9.086-2.29a7.079,7.079,0,0,1-3.939-6.079Zm13.549,25.4a1.924,1.924,0,0,1-.416.175c-2.794.558-6.537-.966-9.206-2.261a7.079,7.079,0,0,1-3.939-6.329v-1a7.911,7.911,0,0,0,3.573,3.564c2.806,1.374,6.75,2.915,9.606,2.357a3.232,3.232,0,0,0,2.082-1.774c-.008,1.653-.275,4.41-1.7,5.251Z" transform="translate(0)" fill="#302d3d"/>
    <path id="Path_20" data-name="Path 20" d="M20.113,62.27a3.956,3.956,0,0,0-3.435,2.024l-.175.3a.42.42,0,1,0,.729.416l.171-.3a3.131,3.131,0,0,1,2.727-1.6.416.416,0,1,0,0-.833Z" transform="translate(-9.653 -34.211)" fill="#302d3d"/>
    <path id="Path_21" data-name="Path 21" d="M64.712,35.305l.308.171A3.131,3.131,0,0,1,66.615,38.2a.416.416,0,1,0,.833,0,3.964,3.964,0,0,0-2.023-3.456l-.3-.171a.42.42,0,0,0-.416.729Z" transform="translate(-37.702 -18.019)" fill="#302d3d"/>
    <path id="Path_22" data-name="Path 22" d="M28.079,37.126l.079-.387a.416.416,0,1,0-.816-.167l-.079.383a2.319,2.319,0,0,0,.891,2.332.383.383,0,0,0,.246.083.416.416,0,0,0,.25-.75,1.5,1.5,0,0,1-.57-1.495Z" transform="translate(-15.938 -19.019)" fill="#302d3d"/>
    <path id="Path_23" data-name="Path 23" d="M23.07,38.766a.417.417,0,0,0-.35.758,1.836,1.836,0,0,1,.933,1.312l.075.383a.424.424,0,1,0,.833-.162l-.075-.383A2.673,2.673,0,0,0,23.07,38.766Z" transform="translate(-13.173 -20.472)" fill="#302d3d"/>
    <path id="Path_24" data-name="Path 24" d="M67.364,54.895a1.749,1.749,0,0,1-.358-1.666l.092-.308a.417.417,0,0,0-.8-.237l-.092.308a2.582,2.582,0,0,0,.529,2.444L67.747,56.6l-.237.862a.417.417,0,0,0,.8.221l.2-.741,1.2.108a.415.415,0,0,0,.037-.829L68.413,56.1Z" transform="translate(-38.629 -28.443)" fill="#302d3d"/>
  </g>
</svg>
