<svg xmlns="http://www.w3.org/2000/svg" width="40" height="27.222" viewBox="0 0 40 27.222">
  <g id="_05-Kidney" data-name="05-Kidney" transform="translate(0.078 -16.08)">
    <path id="Path_25" data-name="Path 25" d="M46.859,30.518v2.354l-5.312-.712a.983.983,0,0,0-1.108.971V44.2H38.08V32.034a.979.979,0,0,0-1.108-.971l-5.312.712V29.43l5.558-.758a.975.975,0,0,0,.833-.971V23.31h2.358V28.8a.983.983,0,0,0,.833.971Z" transform="translate(-18.515 -4.218)" fill="#8296ff"/>
    <path id="Path_26" data-name="Path 26" d="M36.23,36.5l-4.57.617v2.354l4.57-.612Z" transform="translate(-18.515 -11.912)" fill="#6478dc"/>
    <rect id="Rectangle_13" data-name="Rectangle 13" width="2.358" height="8.053" transform="translate(19.565 31.933)" fill="#6478dc"/>
    <path id="Path_27" data-name="Path 27" d="M59,40.956a1.167,1.167,0,0,0,1.012,1.154l2.8.375V40.131l-2.5-.333A1.167,1.167,0,0,0,59,40.956Z" transform="translate(-34.465 -13.831)" fill="#6478dc"/>
    <path id="Path_28" data-name="Path 28" d="M15.162,35.769a5.4,5.4,0,0,1-7.874,6.516,13.249,13.249,0,0,1,0-22.552,5.424,5.424,0,0,1,7.874,6.549,13.474,13.474,0,0,0,0,9.487Z" transform="translate(-0.626 -1.657)" fill="#f7527b"/>
    <path id="Path_29" data-name="Path 29" d="M15.438,48.42a5.391,5.391,0,0,1-8.166,3.829A13.249,13.249,0,0,1,1.935,36,13.211,13.211,0,0,0,7.826,50.557a5.366,5.366,0,0,0,7.612-2.137Z" transform="translate(-0.61 -11.621)" fill="#e33967"/>
    <path id="Path_30" data-name="Path 30" d="M17.42,32.031a2.621,2.621,0,0,0,2.5-1.75,2.286,2.286,0,0,0-.033-2.371,2.008,2.008,0,0,0-2.779-.629A10.336,10.336,0,0,0,15.4,28.6a2.008,2.008,0,0,0,1.429,3.433Z" transform="translate(-8.683 -6.352)" fill="#ff7f99"/>
    <path id="Path_31" data-name="Path 31" d="M42.586,31.234v2.354l-5.812-.712a1.25,1.25,0,0,0-1.412,1.25v9.507H33.008V34.592a1.133,1.133,0,0,0-1.287-1.121L27,34.138V31.784l4.454-.629a1.829,1.829,0,0,0,1.575-1.812V17.26h2.354V28.6a1.975,1.975,0,0,0,1.737,1.962Z" transform="translate(-15.797 -0.688)" fill="#ffa7bc"/>
    <path id="Path_32" data-name="Path 32" d="M28.379,51.622l-1.379.2v2.354l1.725-.242a1.167,1.167,0,1,0-.325-2.308Z" transform="translate(-15.797 -20.723)" fill="#ff84a3"/>
    <path id="Path_33" data-name="Path 33" d="M58.58,51.616a1.171,1.171,0,0,0,1.029,1.146l1.4.171V50.6l-1.117-.137a1.171,1.171,0,0,0-1.312,1.158Z" transform="translate(-34.22 -20.05)" fill="#ff84a3"/>
    <path id="Path_34" data-name="Path 34" d="M60.538,35.757a5.39,5.39,0,0,0,7.853,6.516,13.249,13.249,0,0,0,0-22.552,5.4,5.4,0,0,0-7.853,6.533,13.474,13.474,0,0,1,0,9.5Z" transform="translate(-35.149 -1.645)" fill="#f7527b"/>
    <path id="Path_35" data-name="Path 35" d="M74.682,45.083a13.12,13.12,0,0,1-6.291,11.249,5.394,5.394,0,0,1-8.178-5.216,5.384,5.384,0,0,0,8.016,3.133A13.12,13.12,0,0,0,74.52,43,11.732,11.732,0,0,1,74.682,45.083Z" transform="translate(-35.149 -15.704)" fill="#e33967"/>
    <path id="Path_36" data-name="Path 36" d="M75.439,36.952h.279a1.667,1.667,0,0,0,1.667-1.621,9.72,9.72,0,0,0-4.708-8.458A2.008,2.008,0,0,0,69.9,27.5a1.946,1.946,0,0,0-.208,1.891,16.494,16.494,0,0,1,.875,3.333,4.933,4.933,0,0,0,4.87,4.225Z" transform="translate(-40.613 -6.115)" fill="#ff7f99"/>
    <path id="Path_37" data-name="Path 37" d="M40.253,46.26v1.858a.417.417,0,0,1-.833,0v-.3A1.837,1.837,0,0,0,40.253,46.26Z" transform="translate(-23.042 -17.606)" fill="#f7527b"/>
    <path id="Path_38" data-name="Path 38" d="M47.9,46.053v.867a.417.417,0,0,1-.833,0v-2.5A1.966,1.966,0,0,0,47.9,46.053Z" transform="translate(-27.505 -16.533)" fill="#f7527b"/>
    <path id="Path_39" data-name="Path 39" d="M53.563,41.292v1.121a.979.979,0,0,0-.833.967V41.3a.417.417,0,0,1,.833,0Z" transform="translate(-30.807 -14.468)" fill="#5f5fb9"/>
    <path id="Path_40" data-name="Path 40" d="M33.426,17.676a5.817,5.817,0,0,0-8.462,7.037c.087.225.167.458.237.687l-2.412-.321a.567.567,0,0,1-.487-.558V19.03a.417.417,0,0,0-.417-.417H19.952V16.5a.417.417,0,0,0-.417-.417H17.178a.417.417,0,0,0-.417.417v7.737l-1.808.242a5.814,5.814,0,0,0-8.541-6.8,13.665,13.665,0,0,0,0,23.26A5.815,5.815,0,0,0,14.874,33.9c-.075-.192-.133-.392-.2-.592l1.267-.183a.717.717,0,0,1,.833.708v9.049a.417.417,0,0,0,.417.417h2.341a.417.417,0,0,0,.417-.417V40.34H21.89a.417.417,0,0,0,.417-.417V32.712l2.941.362c-.054.183-.279.871-.279.833A5.815,5.815,0,0,0,33.43,40.94a13.665,13.665,0,0,0,0-23.263ZM22.3,28.85a.562.562,0,0,1,.637-.554l2.85.379q.031.625,0,1.25L22.3,29.508Zm-.833-9.4v5.075A1.4,1.4,0,0,0,22.681,25.9l2.762.371a13.124,13.124,0,0,1,.275,1.55l-2.666-.358a1.4,1.4,0,0,0-.75.117V26.75a.417.417,0,0,0-.833,0V29.4l-.15-.021a1.571,1.571,0,0,1-1.367-1.625V19.446Zm-7.4,10.766a13.424,13.424,0,0,1,.05-2.433l2.633-.35V28.6A1.425,1.425,0,0,1,15.536,30ZM16.761,26.6l-2.5.333a12.661,12.661,0,0,1,.392-1.567l2.112-.283Zm-2.671,7.6a4.982,4.982,0,0,1-7.245,6.029,12.836,12.836,0,0,1,0-21.844,4.986,4.986,0,0,1,7.245,6.033,13.953,13.953,0,0,0-.833,5.9l-1.7.242a5.162,5.162,0,0,0-.629-2.05l.775-1.017a.416.416,0,1,0-.662-.5l-.6.787a6.166,6.166,0,0,0-.579-.629.417.417,0,1,0-.587.587l.192.192a4.362,4.362,0,0,1,1.271,3.121V33.4a4.608,4.608,0,0,1-1.354,3.279l-.417.417a.417.417,0,0,0,.3.712c.225,0,.3-.129.692-.521a5.416,5.416,0,0,0,1.583-3.5l2.283-.321C13.911,33.691,13.995,33.962,14.091,34.2Zm5.029,8.27H17.594V33.841A1.554,1.554,0,0,0,15.828,32.3l-4.266.612V31.4l4.1-.575a2.25,2.25,0,0,0,1.1-.483v.6a.417.417,0,0,0,.833,0V16.913h1.525Zm2.354-2.962H19.952V33.37a.833.833,0,0,1,.942-.833l.579.071Zm-.483-7.8a1.667,1.667,0,0,0-1.042.217V29.65a2.4,2.4,0,0,0,1.254.562l4.5.554a13.964,13.964,0,0,1-.254,1.483Zm12,8.5a4.982,4.982,0,0,1-7.241-6.029,13.5,13.5,0,0,0,.833-3.7.1.1,0,0,0,0-.029.238.238,0,0,0,0-.054,13.894,13.894,0,0,0-.833-6,4.983,4.983,0,0,1,7.245-6.033,12.832,12.832,0,0,1,0,21.842Z" fill="#302d3d"/>
    <path id="Path_41" data-name="Path 41" d="M73.023,40.362l-1.642-.721a9.833,9.833,0,0,1,1.083-3.666.417.417,0,1,0-.767-.329,10.381,10.381,0,0,0-1.162,4.2.417.417,0,0,0,0,.1,10.982,10.982,0,0,0,.192,2.321.421.421,0,1,0,.833-.125,11.987,11.987,0,0,1-.187-1.6l1.321.579a.417.417,0,1,0,.333-.762Z" transform="translate(-41.192 -11.267)" fill="#302d3d"/>
  </g>
</svg>
